<?xml version="1.0" encoding="utf-8"?>
<!-- Generator: Adobe Illustrator 16.0.0, SVG Export Plug-In . SVG Version: 6.00 Build 0)  -->
<!DOCTYPE svg PUBLIC "-//W3C//DTD SVG 1.1//EN" "http://www.w3.org/Graphics/SVG/1.1/DTD/svg11.dtd">
<svg version="1.1" id="Layer_1" xmlns="http://www.w3.org/2000/svg" xmlns:xlink="http://www.w3.org/1999/xlink" x="0px" y="0px"
	 width="150px" height="255.36px" viewBox="0 0 150 255.36" enable-background="new 0 0 150 255.36" xml:space="preserve">
<g>
	<g>
		<path fill-rule="evenodd" clip-rule="evenodd" fill="#FFFFFF" d="M34.08,255.36c-11.28,0-22.56,0-33.84,0
			c0-85.04,0-170.081,0-255.12c16.64,0,33.28,0,49.92,0c-0.013,0.639-0.037,1.278-0.037,1.918
			c-0.002,15.597,0.047,31.194-0.056,46.79c-0.015,2.294-0.605,4.621-1.188,6.866c-0.713,2.753-1.729,5.428-2.555,8.154
			c-0.628,2.074-1.142,4.182-1.744,6.264c-0.972,3.359-1.979,6.709-2.963,10.065c-0.322,1.098-0.604,2.208-0.931,3.304
			c-0.9,3.009-1.822,6.012-2.72,9.021c-0.538,1.804-1.035,3.62-1.575,5.423c-0.912,3.043-1.863,6.075-2.759,9.124
			c-0.4,1.36-0.662,2.762-1.065,4.121c-0.884,2.975-1.833,5.929-2.725,8.901c-0.553,1.846-1.029,3.715-1.575,5.563
			c-0.898,3.043-1.845,6.073-2.73,9.12c-0.419,1.441-0.695,2.924-1.118,4.363c-0.851,2.895-1.775,5.768-2.636,8.659
			c-0.595,1.998-1.103,4.023-1.705,6.02c-1.062,3.523-2.195,7.026-3.245,10.554c-0.838,2.819-1.584,5.665-2.391,8.494
			c-0.957,3.358-1.931,6.712-2.904,10.065c-0.701,2.415-1.437,4.821-2.116,7.243c-1.072,3.822-2.12,7.652-3.158,11.484
			c-0.833,3.076-1.635,6.161-2.453,9.241c-0.263,0.99-0.523,1.98-0.795,2.968c-0.604,2.19-1.355,4.353-1.782,6.577
			c-0.41,2.138-0.521,4.338-0.7,6.516c-0.195,2.368,0.299,4.619,1.123,6.849c1.412,3.821,3.773,7.016,6.445,9.991
			c2.244,2.499,5.147,4.143,7.966,5.933c4.041,2.568,8.484,3.723,13.072,4.593C30.788,254.735,32.434,255.048,34.08,255.36z"/>
		<path fill-rule="evenodd" clip-rule="evenodd" fill="#FFFFFF" d="M101.76,0.24c16.073,0,32.146,0,48.24,0
			c0,73.04,0,146.08,0,219.12c-0.493-1.527-1.021-3.044-1.471-4.583c-0.596-2.039-1.094-4.107-1.699-6.144
			c-1.081-3.638-2.233-7.255-3.314-10.893c-0.828-2.787-1.575-5.598-2.387-8.39c-1.184-4.075-2.392-8.143-3.591-12.212
			c-0.952-3.231-1.922-6.458-2.854-9.694c-0.825-2.866-1.594-5.749-2.418-8.615c-0.943-3.282-1.938-6.549-2.88-9.831
			c-1.074-3.739-2.121-7.487-3.164-11.236c-0.359-1.288-0.633-2.602-1.014-3.884c-1.081-3.635-2.219-7.253-3.293-10.891
			c-0.614-2.077-1.135-4.182-1.723-6.267c-1.013-3.595-2.041-7.185-3.069-10.775c-0.497-1.737-0.999-3.473-1.516-5.204
			c-0.908-3.046-1.841-6.084-2.738-9.134c-0.555-1.883-1.052-3.784-1.599-5.67c-0.962-3.317-1.954-6.626-2.912-9.944
			c-0.566-1.967-1.065-3.953-1.64-5.917c-1.153-3.953-2.338-7.897-3.508-11.845c-0.289-0.974-0.557-1.954-0.863-2.922
			c-0.617-1.945-1.331-3.837-1.305-5.957c0.124-9.875,0.137-19.751,0.247-29.626c0.07-6.301,0.241-12.602,0.371-18.902
			C101.665,0.63,101.726,0.436,101.76,0.24z"/>
		<path fill-rule="evenodd" clip-rule="evenodd" d="M101.76,0.24c-0.034,0.195-0.095,0.39-0.099,0.586
			c-0.13,6.3-0.301,12.601-0.371,18.902c-0.11,9.875-0.123,19.751-0.247,29.626c-0.026,2.12,0.688,4.011,1.305,5.957
			c0.307,0.968,0.574,1.948,0.863,2.922c1.17,3.948,2.354,7.892,3.508,11.845c0.574,1.964,1.073,3.95,1.64,5.917
			c0.958,3.318,1.95,6.627,2.912,9.944c0.547,1.886,1.044,3.787,1.599,5.67c0.897,3.049,1.83,6.088,2.738,9.134
			c0.517,1.731,1.019,3.467,1.516,5.204c1.028,3.59,2.057,7.18,3.069,10.775c0.588,2.085,1.108,4.189,1.723,6.267
			c1.074,3.637,2.212,7.256,3.293,10.891c0.381,1.282,0.654,2.596,1.014,3.884c1.043,3.749,2.09,7.497,3.164,11.236
			c0.941,3.282,1.937,6.549,2.88,9.831c0.824,2.866,1.593,5.749,2.418,8.615c0.933,3.236,1.902,6.463,2.854,9.694
			c1.199,4.069,2.407,8.137,3.591,12.212c0.812,2.792,1.559,5.603,2.387,8.39c1.081,3.638,2.233,7.255,3.314,10.893
			c0.605,2.036,1.104,4.104,1.699,6.144c0.45,1.539,0.978,3.056,1.471,4.583c0,4.8,0,9.6,0,14.399
			c-0.359,0.99-0.631,2.024-1.096,2.963c-1.647,3.331-4.031,6.11-6.739,8.614c-2.228,2.061-4.811,3.581-7.465,5.056
			c-3.385,1.88-6.906,3.318-10.699,3.898c-3.181,0.486-6.423,0.566-9.638,0.829c-0.921,0.075-1.842,0.16-2.764,0.24
			c-25.84,0-51.68,0-77.52,0c-1.646-0.313-3.292-0.625-4.938-0.938c-4.588-0.87-9.031-2.024-13.072-4.593
			c-2.819-1.79-5.722-3.434-7.966-5.933c-2.671-2.976-5.033-6.17-6.445-9.991c-0.823-2.229-1.318-4.48-1.123-6.849
			c0.18-2.178,0.291-4.378,0.7-6.516c0.427-2.225,1.178-4.387,1.782-6.577c0.272-0.987,0.532-1.978,0.795-2.968
			c0.817-3.08,1.62-6.165,2.453-9.241c1.038-3.832,2.086-7.662,3.158-11.484c0.679-2.422,1.415-4.828,2.116-7.243
			c0.974-3.354,1.947-6.707,2.904-10.065c0.806-2.829,1.553-5.675,2.391-8.494c1.049-3.527,2.183-7.03,3.245-10.554
			c0.602-1.996,1.11-4.021,1.705-6.02c0.86-2.892,1.785-5.765,2.636-8.659c0.423-1.439,0.699-2.922,1.118-4.363
			c0.885-3.047,1.832-6.076,2.73-9.12c0.545-1.848,1.021-3.717,1.575-5.563c0.892-2.972,1.841-5.927,2.725-8.901
			c0.403-1.359,0.666-2.761,1.065-4.121c0.896-3.048,1.847-6.08,2.759-9.124c0.541-1.803,1.037-3.619,1.575-5.423
			c0.898-3.01,1.82-6.012,2.72-9.021c0.328-1.096,0.609-2.206,0.931-3.304c0.984-3.356,1.991-6.706,2.963-10.065
			c0.602-2.082,1.116-4.19,1.744-6.264c0.826-2.726,1.841-5.4,2.555-8.154c0.582-2.245,1.172-4.572,1.188-6.866
			c0.103-15.596,0.053-31.193,0.056-46.79c0-0.64,0.024-1.279,0.037-1.918C67.36,0.24,84.56,0.24,101.76,0.24z M51.313,1.185
			c0,0.665,0,1.138,0,1.612c0,15.718,0.001,31.436-0.003,47.153c0,0.477,0.027,0.975-0.094,1.427
			c-0.428,1.587-0.925,3.155-1.377,4.736c-0.325,1.135-0.59,2.288-0.938,3.416c-0.852,2.768-1.762,5.518-2.597,8.291
			c-0.612,2.032-1.121,4.094-1.712,6.132c-0.995,3.434-2.024,6.858-3.028,10.289c-0.531,1.814-1.015,3.642-1.56,5.451
			c-0.87,2.886-1.79,5.756-2.656,8.643c-0.576,1.919-1.082,3.859-1.641,5.782c-0.976,3.353-1.976,6.699-2.952,10.052
			c-0.331,1.137-0.596,2.293-0.937,3.427c-0.879,2.926-1.802,5.84-2.673,8.769c-0.558,1.877-1.042,3.776-1.585,5.657
			c-0.991,3.434-2.007,6.858-2.999,10.291c-0.306,1.058-0.543,2.136-0.858,3.19c-0.918,3.082-1.87,6.154-2.787,9.236
			c-0.527,1.771-1.004,3.557-1.516,5.332c-1,3.468-2.015,6.931-3.01,10.399c-0.553,1.927-1.054,3.869-1.62,5.793
			c-0.862,2.932-1.778,5.848-2.636,8.78c-0.575,1.967-1.079,3.954-1.634,5.927c-0.946,3.358-1.921,6.71-2.86,10.071
			c-0.592,2.122-1.122,4.263-1.711,6.387c-0.891,3.208-1.872,6.393-2.691,9.619c-0.498,1.958-0.844,3.964-1.114,5.968
			c-0.536,3.976-1.076,8.015,1.055,11.712c1.514,2.626,3.091,5.262,5.004,7.595c1.481,1.807,3.408,3.323,5.352,4.655
			c2.223,1.525,4.621,2.835,7.062,3.986c1.61,0.759,3.401,1.226,5.161,1.553c3.768,0.699,7.555,1.334,11.359,1.775
			c2.172,0.252,4.394,0.079,6.593,0.082c9.838,0.017,19.677,0.08,29.515,0.026c13.424-0.073,26.849-0.195,40.272-0.395
			c3.053-0.045,6.097-0.549,9.151-0.742c4.09-0.261,7.71-1.809,11.285-3.683c3.705-1.941,7.027-4.304,9.873-7.381
			c3.673-3.973,5.729-8.597,5.971-14.01c0.143-3.193-0.146-6.319-1.183-9.383c-0.706-2.088-1.134-4.268-1.765-6.384
			c-1.071-3.599-2.243-7.168-3.298-10.771c-0.707-2.415-1.282-4.869-1.925-7.303c-0.263-0.993-0.528-1.985-0.829-2.968
			c-0.849-2.768-1.743-5.522-2.567-8.297c-0.605-2.037-1.112-4.104-1.696-6.147c-0.981-3.436-1.996-6.862-2.984-10.296
			c-0.315-1.099-0.561-2.218-0.889-3.313c-0.898-2.999-1.84-5.985-2.731-8.987c-0.549-1.845-1.023-3.712-1.556-5.562
			c-0.955-3.318-1.937-6.629-2.893-9.946c-0.338-1.174-0.605-2.37-0.957-3.54c-1.091-3.634-2.228-7.254-3.304-10.893
			c-0.613-2.074-1.123-4.18-1.716-6.261c-0.979-3.435-1.993-6.86-2.979-10.292c-0.543-1.889-1.035-3.792-1.596-5.676
			c-0.872-2.93-1.804-5.843-2.671-8.774c-0.592-2.001-1.096-4.027-1.674-6.033c-0.946-3.281-1.933-6.55-2.879-9.831
			c-0.578-2.005-1.092-4.028-1.673-6.032c-0.917-3.162-1.869-6.313-2.802-9.47c-0.522-1.77-0.983-3.56-1.565-5.31
			c-0.812-2.441-1.576-4.85-1.55-7.491c0.161-15.714,0.247-31.429,0.382-47.143c0.009-0.97-0.27-1.348-1.297-1.311
			c-4.061,0.146-8.124,0.284-12.187,0.308c-11.317,0.065-22.635,0.07-33.953,0.1C52.529,1.186,52.015,1.185,51.313,1.185z"/>
		<path fill-rule="evenodd" clip-rule="evenodd" fill="#FFFFFF" d="M111.6,255.36c0.922-0.08,1.843-0.165,2.764-0.24
			c3.215-0.263,6.457-0.343,9.638-0.829c3.793-0.58,7.314-2.019,10.699-3.898c2.654-1.475,5.237-2.995,7.465-5.056
			c2.708-2.504,5.092-5.283,6.739-8.614c0.465-0.938,0.736-1.973,1.096-2.963c0,7.2,0,14.4,0,21.601
			C137.2,255.36,124.4,255.36,111.6,255.36z"/>
		<path fill-rule="evenodd" clip-rule="evenodd" fill="#FFFFFF" d="M51.313,1.185c0.702,0,1.215,0.001,1.729,0
			c11.317-0.029,22.635-0.035,33.953-0.1c4.063-0.023,8.126-0.162,12.187-0.308c1.027-0.037,1.306,0.341,1.297,1.311
			c-0.135,15.714-0.221,31.429-0.382,47.143c-0.026,2.642,0.738,5.05,1.55,7.491c0.582,1.75,1.043,3.54,1.565,5.31
			c0.933,3.157,1.885,6.308,2.802,9.47c0.581,2.004,1.095,4.027,1.673,6.032c0.946,3.281,1.933,6.55,2.879,9.831
			c0.578,2.005,1.082,4.032,1.674,6.033c0.867,2.931,1.799,5.844,2.671,8.774c0.561,1.883,1.053,3.787,1.596,5.676
			c0.986,3.433,2.001,6.857,2.979,10.292c0.593,2.081,1.103,4.187,1.716,6.261c1.076,3.639,2.213,7.259,3.304,10.893
			c0.352,1.17,0.619,2.366,0.957,3.54c0.956,3.317,1.938,6.628,2.893,9.946c0.532,1.85,1.007,3.717,1.556,5.562
			c0.892,3.002,1.833,5.988,2.731,8.987c0.328,1.095,0.573,2.214,0.889,3.313c0.988,3.434,2.003,6.86,2.984,10.296
			c0.584,2.044,1.091,4.11,1.696,6.147c0.824,2.774,1.719,5.529,2.567,8.297c0.301,0.982,0.566,1.975,0.829,2.968
			c0.643,2.434,1.218,4.888,1.925,7.303c1.055,3.604,2.227,7.173,3.298,10.771c0.631,2.116,1.059,4.296,1.765,6.384
			c1.036,3.063,1.325,6.189,1.183,9.383c-0.242,5.413-2.298,10.037-5.971,14.01c-2.846,3.077-6.168,5.439-9.873,7.381
			c-3.575,1.874-7.195,3.422-11.285,3.683c-3.055,0.193-6.099,0.697-9.151,0.742c-13.423,0.199-26.848,0.321-40.272,0.395
			c-9.838,0.054-19.677-0.01-29.515-0.026c-2.199-0.003-4.421,0.17-6.593-0.082c-3.805-0.441-7.592-1.076-11.359-1.775
			c-1.76-0.327-3.551-0.794-5.161-1.553c-2.441-1.151-4.839-2.461-7.062-3.986c-1.943-1.332-3.871-2.849-5.352-4.655
			c-1.913-2.333-3.491-4.969-5.004-7.595c-2.131-3.697-1.591-7.736-1.055-11.712c0.27-2.004,0.616-4.01,1.114-5.968
			c0.819-3.227,1.8-6.411,2.691-9.619c0.589-2.124,1.119-4.265,1.711-6.387c0.938-3.361,1.914-6.713,2.86-10.071
			c0.556-1.973,1.059-3.96,1.634-5.927c0.858-2.933,1.774-5.849,2.636-8.78c0.566-1.924,1.067-3.866,1.62-5.793
			c0.995-3.469,2.011-6.932,3.01-10.399c0.512-1.775,0.989-3.562,1.516-5.332c0.917-3.082,1.869-6.154,2.787-9.236
			c0.314-1.055,0.552-2.133,0.858-3.19c0.992-3.433,2.008-6.857,2.999-10.291c0.543-1.881,1.027-3.779,1.585-5.657
			c0.872-2.929,1.794-5.842,2.673-8.769c0.341-1.134,0.606-2.29,0.937-3.427c0.977-3.353,1.976-6.699,2.952-10.052
			c0.56-1.923,1.065-3.863,1.641-5.782c0.866-2.887,1.787-5.757,2.656-8.643c0.545-1.809,1.029-3.637,1.56-5.451
			c1.003-3.431,2.033-6.855,3.028-10.289c0.591-2.039,1.1-4.101,1.712-6.132c0.835-2.773,1.746-5.523,2.597-8.291
			c0.347-1.128,0.612-2.281,0.938-3.416c0.453-1.581,0.95-3.149,1.377-4.736c0.122-0.452,0.094-0.95,0.094-1.427
			c0.004-15.718,0.003-31.436,0.003-47.153C51.313,2.323,51.313,1.85,51.313,1.185z M39.579,222.28
			c6.195,0,12.391,0.002,18.586-0.001c1.633-0.001,1.7-0.06,1.702-1.672c0.005-7.155,0.005-14.31,0-21.464
			c-0.001-1.607-0.098-1.707-1.688-1.708c-12.391-0.005-24.781,0.011-37.172-0.024c-1.459-0.005-2.01,0.575-2.003,2.073
			c0.032,6.915,0.028,13.829,0.003,20.744c-0.005,1.426,0.475,2.105,2.106,2.084C27.268,222.234,33.424,222.281,39.579,222.28z
			 M54.04,234.457c-0.113,0.023-0.227,0.047-0.34,0.07c-0.286-1.617-2.295-2.72-1.348-4.654c0.717-1.466,1.256-3.144,2.926-3.97
			c-1.188,0-2.375,0-3.493,0c0.366,0.488,0.984,0.944,0.954,1.354c-0.047,0.647-0.486,1.29-0.858,1.872
			c-0.086,0.136-0.773,0.122-0.836-0.001c-0.398-0.777-0.699-1.604-1.022-2.391c0.464-0.272,0.78-0.458,1.384-0.813
			c-1.667,0-2.987,0-4.307,0c1.919,0.826,1.998,2.78,2.806,4.221c1.058,1.886-0.322,3.183-1.137,4.742
			c-0.857-1.884-1.778-3.566-2.38-5.356c-0.371-1.103-2.152-2.38,0.354-3.619c-1.873,0-3.359,0-4.741,0
			c0.646,0.646,1.497,1.163,1.853,1.914c1.367,2.89,2.593,5.848,3.832,8.797c0.295,0.702,0.491,0.854,0.876,0.086
			c0.153-0.306,0.382-0.571,0.547-0.872c0.563-1.029,1.112-2.065,1.817-3.38c0.881,1.802,1.606,3.282,2.348,4.8
			c0.252-0.17,0.395-0.212,0.435-0.301c1.188-2.618,2.325-5.262,3.567-7.854c0.541-1.129,0.555-2.705,2.218-3.161
			c-1.167,0-2.335,0-3.502,0c0.674,0.477,1.511,0.73,1.075,1.739C56.085,229.952,55.052,232.2,54.04,234.457z M46.384,189.543
			c-0.291-1.094-0.464-2.059-0.807-2.959c-0.563-1.481-1.438-2.002-2.884-1.889c-1.018,0.08-2.189,1.167-2.5,2.311
			c-0.463,1.704-0.565,3.414,0.05,5.096c0.351,0.96,0.773,1.932,1.974,2.099c1.183,0.165,2.449,0.109,3.039-1.037
			C45.831,192.046,46.03,190.733,46.384,189.543z M39.177,189.506c-0.059-0.023-0.117-0.046-0.175-0.069
			c-0.093-0.829-0.099-1.68-0.301-2.481c-0.273-1.085-0.953-1.934-2.092-2.191c-1.231-0.279-2.28,0.016-3.011,1.188
			c-1.368,2.191-1.18,4.56-0.325,6.719c0.875,2.212,3.754,2.238,4.929,0.147C38.751,191.84,38.865,190.617,39.177,189.506z
			 M88.934,234.427c3.513,0,7.025,0.012,10.538-0.02c0.355-0.003,0.708-0.269,1.063-0.412c-0.351-0.146-0.7-0.42-1.051-0.421
			c-7.065-0.025-14.131-0.025-21.196,0.001c-0.334,0.002-0.667,0.305-1.001,0.468c0.33,0.128,0.659,0.365,0.989,0.367
			C81.828,234.438,85.381,234.428,88.934,234.427z M50.676,194.539c0-1.501,0.048-2.614-0.014-3.722
			c-0.055-0.965,0.439-1.261,1.276-1.313c0.939-0.06,1.008,0.574,1.016,1.245c0.013,1.142,0.003,2.284,0.003,3.426
			c0.146,0.063,0.293,0.128,0.439,0.191c0.244-0.331,0.656-0.643,0.699-0.998c0.104-0.866,0.111-1.762,0.019-2.631
			c-0.1-0.94,0.493-1.286,1.164-1.304c0.768-0.021,1.115,0.557,1.088,1.359c-0.036,1.109-0.009,2.222-0.009,3.333
			c0.124,0.064,0.247,0.129,0.371,0.194c0.188-0.252,0.527-0.499,0.538-0.758c0.047-1.236,0.033-2.477-0.023-3.713
			c-0.015-0.316-0.198-0.678-0.413-0.922c-0.79-0.896-1.51-0.85-2.722-0.032c-0.828-0.221-1.474-0.503-2.132-0.538
			c-0.665-0.034-1.342,0.177-2.194,0.309c0,1.582-0.02,3.327,0.028,5.07C49.816,193.93,50.202,194.113,50.676,194.539z M25.3,194.1
			c1.52,0,2.825,0.212,4.007-0.078c0.725-0.178,1.446-1.025,1.833-1.752c0.436-0.817-0.044-1.688-0.702-2.313
			c-0.285-0.271-0.716-0.385-1.239-0.65c1.307-0.454,1.779-1.378,1.708-2.45c-0.063-0.938-0.52-1.853-1.592-2.044
			c-1.265-0.226-2.576-0.393-3.452,1.057c0.574,0.096,1.154,0.107,1.657-0.083c0.954-0.362,1.443,0.192,1.961,0.803
			c0.638,0.75,0.08,1.313-0.394,1.71c-0.413,0.345-1.054,0.409-1.58,0.631c-0.218,0.092-0.398,0.272-0.596,0.412
			c0.209,0.166,0.398,0.371,0.633,0.483c0.166,0.078,0.435-0.04,0.584,0.05c0.665,0.405,1.761,0.479,1.708,1.506
			c-0.031,0.605-0.465,1.619-0.858,1.691c-0.939,0.174-1.962-0.102-2.951-0.192c-0.073-0.007-0.148,0.017-0.301,0.035
			C25.636,193.169,25.533,193.453,25.3,194.1z M89.642,97.868c-3.758,0-7.517-0.011-11.274,0.019
			c-0.353,0.003-0.704,0.271-1.056,0.416c0.324,0.132,0.647,0.379,0.971,0.38c7.517,0.021,15.033,0.021,22.55-0.002
			c0.311-0.001,0.621-0.271,0.932-0.417c-0.322-0.132-0.645-0.377-0.968-0.38C97.078,97.857,93.359,97.867,89.642,97.868z
			 M89.642,124.987c-3.799,0-7.598-0.01-11.396,0.019c-0.312,0.002-0.622,0.268-0.934,0.412c0.322,0.134,0.645,0.384,0.968,0.384
			c7.517,0.022,15.033,0.021,22.55-0.002c0.312-0.001,0.622-0.269,0.933-0.413c-0.322-0.133-0.644-0.379-0.967-0.381
			C97.078,124.978,93.359,124.987,89.642,124.987z M89.521,152.939c3.639,0,7.277,0,10.916-0.001c0.279,0,0.571,0.041,0.835-0.026
			c0.184-0.047,0.328-0.246,0.49-0.377c-0.15-0.139-0.279-0.342-0.456-0.4c-0.218-0.072-0.475-0.027-0.715-0.027
			c-7.356-0.001-14.714-0.001-22.071-0.001c-0.24,0-0.495-0.044-0.715,0.024c-0.186,0.057-0.331,0.246-0.493,0.377
			c0.151,0.141,0.281,0.356,0.458,0.404c0.262,0.071,0.555,0.026,0.835,0.026C82.243,152.938,85.882,152.938,89.521,152.939z
			 M89.642,178.985c-3.799,0-7.598-0.011-11.396,0.019c-0.313,0.002-0.624,0.27-0.936,0.413c0.322,0.135,0.644,0.385,0.967,0.386
			c7.517,0.021,15.034,0.021,22.551-0.003c0.313-0.001,0.624-0.271,0.937-0.415c-0.322-0.133-0.645-0.379-0.968-0.381
			C97.078,178.977,93.359,178.986,89.642,178.985z M89.518,206.346c-3.719,0-7.438-0.012-11.155,0.02
			c-0.352,0.003-0.7,0.273-1.05,0.419c0.324,0.132,0.647,0.377,0.973,0.378c7.517,0.022,15.034,0.022,22.551-0.001
			c0.31-0.001,0.619-0.273,0.928-0.42c-0.323-0.131-0.646-0.374-0.971-0.376C97.034,206.339,93.276,206.349,89.518,206.346z
			 M77.522,164.679c-0.108,0.136-0.219,0.271-0.328,0.407c0.285,0.241,0.565,0.687,0.855,0.692c2.715,0.054,5.432,0.045,8.147,0.007
			c0.252-0.003,0.499-0.33,0.748-0.507c-0.229-0.2-0.455-0.57-0.688-0.573C83.347,164.666,80.435,164.679,77.522,164.679z
			 M82.079,110.679c-1.313,0-2.629-0.023-3.941,0.019c-0.282,0.009-0.557,0.256-0.835,0.394c0.258,0.159,0.513,0.453,0.772,0.456
			c2.707,0.034,5.415,0.034,8.122,0.001c0.26-0.003,0.516-0.293,0.773-0.45c-0.277-0.141-0.55-0.395-0.831-0.404
			C84.788,110.654,83.433,110.677,82.079,110.679z M82.213,137.799c-1.394,0-2.788-0.02-4.181,0.019
			c-0.247,0.007-0.487,0.251-0.731,0.385c0.253,0.163,0.505,0.463,0.76,0.466c2.747,0.034,5.495,0.032,8.242,0.002
			c0.225-0.002,0.445-0.286,0.668-0.438c-0.232-0.145-0.461-0.407-0.696-0.414C84.922,137.777,83.567,137.798,82.213,137.799z
			 M82.087,192.689c1.354,0,2.709,0.023,4.062-0.02c0.278-0.008,0.549-0.263,0.823-0.404c-0.259-0.156-0.516-0.444-0.776-0.448
			c-2.668-0.033-5.337-0.035-8.005,0.001c-0.298,0.004-0.592,0.303-0.887,0.465c0.32,0.135,0.636,0.375,0.96,0.387
			C79.537,192.715,80.813,192.688,82.087,192.689z M82.2,220.049c1.314,0,2.63,0.023,3.942-0.019
			c0.28-0.009,0.553-0.258,0.828-0.396c-0.257-0.159-0.512-0.452-0.771-0.455c-2.708-0.034-5.417-0.034-8.125,0
			c-0.259,0.003-0.515,0.298-0.771,0.458c0.278,0.138,0.553,0.385,0.835,0.394C79.49,220.072,80.846,220.049,82.2,220.049z
			 M59.609,186.377c-0.129-0.102-0.259-0.203-0.388-0.306c-0.221,0.278-0.63,0.556-0.632,0.835
			c-0.014,2.191,0.036,4.385,0.112,6.576c0.009,0.257,0.297,0.505,0.455,0.758c0.151-0.229,0.43-0.457,0.433-0.688
			C59.622,191.16,59.609,188.769,59.609,186.377z"/>
		<path fill-rule="evenodd" clip-rule="evenodd" d="M39.579,222.281c-6.155,0-12.312-0.047-18.466,0.031
			c-1.632,0.021-2.111-0.658-2.106-2.084c0.025-6.915,0.029-13.829-0.003-20.744c-0.007-1.498,0.544-2.078,2.003-2.073
			c12.391,0.035,24.781,0.02,37.172,0.024c1.59,0.001,1.687,0.101,1.688,1.708c0.006,7.154,0.006,14.309,0,21.464
			c-0.001,1.612-0.069,1.671-1.702,1.672C51.97,222.282,45.774,222.28,39.579,222.281z M57.787,199.796c-12.11,0-24.117,0-36.142,0
			c0,6.754,0,13.415,0,20.123c12.079,0,24.091,0,36.142,0C57.787,213.19,57.787,206.559,57.787,199.796z"/>
		<path fill-rule="evenodd" clip-rule="evenodd" d="M54.04,234.457c1.012-2.257,2.045-4.505,3.026-6.775
			c0.436-1.009-0.4-1.263-1.075-1.739c1.167,0,2.335,0,3.502,0c-1.663,0.456-1.677,2.032-2.218,3.161
			c-1.243,2.592-2.379,5.235-3.567,7.854c-0.04,0.089-0.182,0.131-0.435,0.301c-0.742-1.518-1.467-2.998-2.348-4.8
			c-0.705,1.314-1.254,2.351-1.817,3.38c-0.165,0.301-0.394,0.566-0.547,0.872c-0.385,0.768-0.581,0.616-0.876-0.086
			c-1.239-2.949-2.464-5.907-3.832-8.797c-0.355-0.751-1.207-1.268-1.853-1.914c1.381,0,2.868,0,4.741,0
			c-2.506,1.239-0.725,2.517-0.354,3.619c0.602,1.79,1.523,3.473,2.38,5.356c0.814-1.56,2.195-2.856,1.137-4.742
			c-0.808-1.44-0.887-3.395-2.806-4.221c1.32,0,2.641,0,4.307,0c-0.604,0.354-0.92,0.54-1.384,0.813
			c0.323,0.787,0.624,1.613,1.022,2.391c0.063,0.123,0.75,0.137,0.836,0.001c0.372-0.582,0.811-1.225,0.858-1.872
			c0.03-0.41-0.588-0.866-0.954-1.354c1.118,0,2.305,0,3.493,0c-1.67,0.826-2.209,2.504-2.926,3.97
			c-0.947,1.935,1.063,3.037,1.348,4.654C53.813,234.504,53.927,234.48,54.04,234.457z"/>
		<path fill-rule="evenodd" clip-rule="evenodd" d="M46.384,189.543c-0.354,1.19-0.553,2.503-1.128,3.62
			c-0.59,1.146-1.856,1.202-3.039,1.037c-1.2-0.167-1.623-1.139-1.974-2.099c-0.615-1.682-0.513-3.392-0.05-5.096
			c0.311-1.144,1.482-2.23,2.5-2.311c1.446-0.113,2.321,0.407,2.884,1.889C45.919,187.484,46.093,188.449,46.384,189.543z
			 M45.102,189.641c-0.069-0.031-0.137-0.063-0.206-0.094c-0.083-0.753,0.008-1.588-0.297-2.236
			c-0.317-0.672-0.958-1.255-1.591-1.674c-0.171-0.112-1.029,0.418-1.233,0.823c-1.017,2.025-0.996,4.111-0.031,6.169
			c0.438,0.933,1.762,1.089,2.251,0.166C44.511,191.822,44.745,190.698,45.102,189.641z"/>
		<path fill-rule="evenodd" clip-rule="evenodd" d="M39.177,189.506c-0.312,1.111-0.425,2.334-0.975,3.312
			c-1.175,2.091-4.054,2.064-4.929-0.147c-0.855-2.159-1.043-4.527,0.325-6.719c0.731-1.172,1.78-1.467,3.011-1.188
			c1.139,0.258,1.818,1.106,2.092,2.191c0.202,0.802,0.208,1.652,0.301,2.481C39.06,189.46,39.118,189.482,39.177,189.506z
			 M37.987,189.472c-0.253-0.959-0.431-1.933-0.771-2.847c-0.42-1.129-1.373-1.354-2.269-0.514
			c-1.643,1.544-1.452,5.709,0.098,7.026c0.675,0.573,1.89,0.181,2.221-0.762C37.59,191.454,37.746,190.474,37.987,189.472z"/>
		<path fill-rule="evenodd" clip-rule="evenodd" d="M88.934,234.427c-3.553,0.001-7.105,0.011-10.658-0.017
			c-0.33-0.002-0.659-0.239-0.989-0.367c0.334-0.163,0.667-0.466,1.001-0.468c7.065-0.026,14.131-0.026,21.196-0.001
			c0.351,0.001,0.7,0.274,1.051,0.421c-0.354,0.144-0.707,0.409-1.063,0.412C95.959,234.438,92.446,234.427,88.934,234.427z"/>
		<path fill-rule="evenodd" clip-rule="evenodd" d="M50.676,194.539c-0.474-0.426-0.86-0.609-0.865-0.803
			c-0.047-1.743-0.028-3.488-0.028-5.07c0.852-0.132,1.529-0.343,2.194-0.309c0.658,0.035,1.304,0.317,2.132,0.538
			c1.212-0.817,1.932-0.863,2.722,0.032c0.215,0.244,0.398,0.605,0.413,0.922c0.056,1.236,0.07,2.477,0.023,3.713
			c-0.01,0.259-0.35,0.506-0.538,0.758c-0.124-0.065-0.248-0.13-0.371-0.194c0-1.111-0.027-2.224,0.009-3.333
			c0.026-0.803-0.32-1.38-1.088-1.359c-0.671,0.018-1.264,0.363-1.164,1.304c0.092,0.869,0.085,1.765-0.019,2.631
			c-0.042,0.355-0.455,0.667-0.699,0.998c-0.146-0.063-0.293-0.128-0.439-0.191c0-1.142,0.009-2.284-0.003-3.426
			c-0.008-0.671-0.077-1.305-1.016-1.245c-0.837,0.053-1.331,0.349-1.276,1.313C50.724,191.925,50.676,193.038,50.676,194.539z"/>
		<path fill-rule="evenodd" clip-rule="evenodd" d="M25.3,194.1c0.233-0.646,0.336-0.931,0.428-1.185
			c0.152-0.019,0.228-0.042,0.301-0.035c0.989,0.091,2.012,0.366,2.951,0.192c0.393-0.072,0.827-1.086,0.858-1.691
			c0.053-1.026-1.044-1.101-1.708-1.506c-0.149-0.09-0.418,0.028-0.584-0.05c-0.234-0.112-0.424-0.317-0.633-0.483
			c0.198-0.14,0.378-0.32,0.596-0.412c0.526-0.222,1.167-0.286,1.58-0.631c0.473-0.396,1.031-0.96,0.394-1.71
			c-0.519-0.61-1.007-1.165-1.961-0.803c-0.503,0.19-1.083,0.179-1.657,0.083c0.875-1.449,2.187-1.282,3.452-1.057
			c1.072,0.191,1.529,1.106,1.592,2.044c0.071,1.072-0.401,1.996-1.708,2.45c0.522,0.266,0.954,0.38,1.239,0.65
			c0.658,0.624,1.138,1.495,0.702,2.313c-0.387,0.727-1.108,1.574-1.833,1.752C28.125,194.312,26.82,194.1,25.3,194.1z"/>
		<path fill-rule="evenodd" clip-rule="evenodd" d="M89.642,97.867c3.718,0,7.437-0.01,11.154,0.017
			c0.323,0.002,0.646,0.248,0.968,0.38c-0.311,0.145-0.621,0.416-0.932,0.417c-7.517,0.024-15.033,0.024-22.55,0.002
			c-0.323-0.001-0.646-0.248-0.971-0.38c0.352-0.145,0.703-0.413,1.056-0.416C82.125,97.856,85.884,97.868,89.642,97.867z"/>
		<path fill-rule="evenodd" clip-rule="evenodd" d="M89.642,124.987c3.718,0,7.437-0.01,11.154,0.018
			c0.323,0.002,0.645,0.249,0.967,0.381c-0.311,0.144-0.621,0.412-0.933,0.413c-7.517,0.023-15.033,0.024-22.55,0.002
			c-0.323,0-0.646-0.25-0.968-0.384c0.312-0.144,0.622-0.409,0.934-0.412C82.044,124.977,85.843,124.987,89.642,124.987z"/>
		<path fill-rule="evenodd" clip-rule="evenodd" d="M89.521,152.938c-3.639,0-7.277,0-10.916,0c-0.28,0-0.573,0.045-0.835-0.026
			c-0.177-0.048-0.307-0.264-0.458-0.404c0.162-0.131,0.308-0.32,0.493-0.377c0.22-0.068,0.475-0.024,0.715-0.024
			c7.357,0,14.715,0,22.071,0.001c0.24,0,0.497-0.045,0.715,0.027c0.177,0.059,0.306,0.262,0.456,0.4
			c-0.162,0.131-0.307,0.33-0.49,0.377c-0.264,0.067-0.556,0.026-0.835,0.026C96.798,152.939,93.159,152.939,89.521,152.938z"/>
		<path fill-rule="evenodd" clip-rule="evenodd" d="M89.642,178.986c3.718,0,7.437-0.01,11.155,0.018
			c0.323,0.002,0.646,0.248,0.968,0.381c-0.313,0.145-0.624,0.414-0.937,0.415c-7.517,0.024-15.034,0.024-22.551,0.003
			c-0.323-0.001-0.645-0.251-0.967-0.386c0.312-0.144,0.622-0.411,0.936-0.413C82.044,178.975,85.843,178.985,89.642,178.986z"/>
		<path fill-rule="evenodd" clip-rule="evenodd" d="M89.518,206.347c3.759,0.002,7.517-0.008,11.275,0.019
			c0.324,0.002,0.647,0.245,0.971,0.376c-0.309,0.146-0.618,0.419-0.928,0.42c-7.517,0.023-15.034,0.023-22.551,0.001
			c-0.325-0.001-0.648-0.246-0.973-0.378c0.35-0.146,0.698-0.416,1.05-0.419C82.08,206.334,85.799,206.346,89.518,206.347z"/>
		<path fill-rule="evenodd" clip-rule="evenodd" d="M77.522,164.679c2.912,0,5.824-0.013,8.735,0.026
			c0.232,0.003,0.459,0.373,0.688,0.573c-0.249,0.177-0.496,0.504-0.748,0.507c-2.716,0.038-5.433,0.047-8.147-0.007
			c-0.29-0.006-0.57-0.451-0.855-0.692C77.304,164.95,77.414,164.814,77.522,164.679z"/>
		<path fill-rule="evenodd" clip-rule="evenodd" d="M82.079,110.678c1.354-0.001,2.709-0.024,4.061,0.018
			c0.281,0.009,0.554,0.263,0.831,0.404c-0.258,0.157-0.514,0.446-0.773,0.45c-2.707,0.033-5.415,0.033-8.122-0.001
			c-0.26-0.003-0.515-0.296-0.772-0.456c0.278-0.138,0.553-0.385,0.835-0.394C79.45,110.656,80.766,110.679,82.079,110.678z"/>
		<path fill-rule="evenodd" clip-rule="evenodd" d="M82.213,137.799c1.354-0.001,2.709-0.021,4.062,0.019
			c0.235,0.007,0.464,0.27,0.696,0.414c-0.223,0.152-0.443,0.437-0.668,0.438c-2.747,0.03-5.495,0.032-8.242-0.002
			c-0.255-0.003-0.507-0.303-0.76-0.466c0.244-0.134,0.484-0.378,0.731-0.385C79.425,137.779,80.819,137.799,82.213,137.799z"/>
		<path fill-rule="evenodd" clip-rule="evenodd" d="M82.087,192.688c-1.274,0-2.55,0.026-3.823-0.019
			c-0.324-0.012-0.64-0.252-0.96-0.387c0.295-0.162,0.589-0.461,0.887-0.465c2.668-0.036,5.337-0.034,8.005-0.001
			c0.261,0.004,0.518,0.292,0.776,0.448c-0.274,0.142-0.545,0.396-0.823,0.404C84.796,192.713,83.44,192.689,82.087,192.688z"/>
		<path fill-rule="evenodd" clip-rule="evenodd" d="M82.2,220.049c-1.354,0-2.71,0.023-4.063-0.019
			c-0.282-0.009-0.557-0.256-0.835-0.394c0.257-0.16,0.513-0.455,0.771-0.458c2.708-0.034,5.417-0.034,8.125,0
			c0.26,0.003,0.515,0.296,0.771,0.455c-0.275,0.139-0.548,0.388-0.828,0.396C84.83,220.072,83.515,220.049,82.2,220.049z"/>
		<path fill-rule="evenodd" clip-rule="evenodd" d="M59.609,186.377c0,2.392,0.012,4.783-0.02,7.175
			c-0.003,0.231-0.282,0.459-0.433,0.688c-0.158-0.253-0.446-0.501-0.455-0.758c-0.076-2.191-0.125-4.385-0.112-6.576
			c0.001-0.279,0.411-0.557,0.632-0.835C59.351,186.174,59.48,186.275,59.609,186.377z"/>
		<path fill-rule="evenodd" clip-rule="evenodd" fill="#FFFFFF" d="M57.787,199.796c0,6.763,0,13.395,0,20.123
			c-12.05,0-24.063,0-36.142,0c0-6.708,0-13.369,0-20.123C33.67,199.796,45.677,199.796,57.787,199.796z"/>
		<path fill-rule="evenodd" clip-rule="evenodd" fill="#FFFFFF" d="M45.102,189.641c-0.357,1.058-0.59,2.182-1.106,3.154
			c-0.489,0.923-1.813,0.767-2.251-0.166c-0.965-2.058-0.986-4.144,0.031-6.169c0.204-0.405,1.062-0.936,1.233-0.823
			c0.633,0.419,1.274,1.002,1.591,1.674c0.305,0.648,0.214,1.483,0.297,2.236C44.964,189.578,45.033,189.609,45.102,189.641z"/>
		<path fill-rule="evenodd" clip-rule="evenodd" fill="#FFFFFF" d="M37.987,189.472c-0.241,1.002-0.397,1.982-0.721,2.904
			c-0.331,0.942-1.546,1.335-2.221,0.762c-1.549-1.317-1.741-5.482-0.098-7.026c0.896-0.841,1.848-0.615,2.269,0.514
			C37.556,187.539,37.734,188.513,37.987,189.472z"/>
	</g>
</g>
</svg>
