<?xml version="1.0" encoding="utf-8"?>
<!-- Generator: Adobe Illustrator 16.0.0, SVG Export Plug-In . SVG Version: 6.00 Build 0)  -->
<!DOCTYPE svg PUBLIC "-//W3C//DTD SVG 1.1//EN" "http://www.w3.org/Graphics/SVG/1.1/DTD/svg11.dtd">
<svg version="1.1" id="Layer_1" xmlns:svg="http://www.w3.org/2000/svg"
	 xmlns="http://www.w3.org/2000/svg" xmlns:xlink="http://www.w3.org/1999/xlink" x="0px" y="0px" width="500px" height="460.075px"
	 viewBox="-233.212 -213.107 500 460.075" enable-background="new -233.212 -213.107 500 460.075" xml:space="preserve">
<g>
	<path fill="#FFFFFF" stroke="#000000" stroke-miterlimit="10" d="M-80.978-189.49v398.751c0,7.878-2.75,14.26-6.144,14.26
		c-3.394,0-6.144-6.382-6.144-14.26h-0.212V-189.49H-80.978z"/>
	<path fill="none" stroke="#000000" stroke-miterlimit="10" d="M-74.978-187.993v408.411c0,8.067-5.5,14.604-12.288,14.604
		s-12.288-6.536-12.288-14.604h-0.424v-408.411H-74.978z"/>
	<path fill="#FFFFFF" stroke="#000000" stroke-miterlimit="10" d="M-63.725-162.836c0,6.612-2.815,11.972-6.288,11.972h-36.417
		c-3.473,0-6.288-5.36-6.288-11.972v-19.52c0-6.612,2.815-11.972,6.288-11.972h36.417c3.473,0,6.288,5.36,6.288,11.972V-162.836z"/>
</g>
<g transform="translate(56.154625,-426.73779)">
	<g transform="matrix(0.69779671,0,0,0.69779671,-72.781959,88.58821)">
		<path fill="none" stroke="#000000" stroke-width="1.4" d="M-80.74,585.719h28.35 M-80.74,655.166h28.35 M-80.74,723.988h28.35
			 M-80.74,760.02h71.648 M-80.74,691.013h71.648 M-80.74,620.709h71.648 M-80.74,550.568h71.648"/>
		<path fill="#FFFFFF" stroke="#000000" stroke-width="2.3" stroke-linejoin="round" d="M-241.226,689.753h97.168v56.454h-97.168
			V689.753z"/>
		<path d="M-144.668,659.075v20.312h2.479v-20.312H-144.668z M-160.698,664.421c-0.756,0-1.448,0.153-2.08,0.504
			c-0.63,0.353-1.267,0.876-1.912,1.521v-1.633h-2.418v14.571h2.418v-10.857c0.549-0.514,1.106-0.963,1.688-1.295
			c0.585-0.328,1.159-0.449,1.691-0.449c0.546,0,0.97,0.061,1.292,0.227c0.323,0.162,0.554,0.438,0.731,0.786
			c0.166,0.322,0.287,0.725,0.337,1.295c0.053,0.57,0.116,1.184,0.116,1.854v8.439h2.418v-9.563c0-0.277,0.01-0.529,0-0.731
			c-0.015-0.204-0.05-0.418-0.055-0.564c0.614-0.585,1.219-0.988,1.798-1.292c0.579-0.31,1.129-0.449,1.633-0.449
			c0.544,0,0.972,0.06,1.292,0.224c0.32,0.167,0.556,0.444,0.733,0.789c0.162,0.319,0.282,0.722,0.338,1.292
			c0.052,0.57,0.055,1.187,0.055,1.857v8.439h2.476v-9.563c0-1.003-0.126-1.874-0.34-2.534c-0.212-0.66-0.509-1.187-0.902-1.63
			c-0.378-0.433-0.836-0.761-1.346-0.952c-0.514-0.197-1.065-0.282-1.688-0.282c-0.826,0-1.607,0.189-2.307,0.617
			c-0.705,0.423-1.401,1.085-2.139,1.912c-0.347-0.896-0.857-1.577-1.518-1.97C-159.055,664.592-159.834,664.421-160.698,664.421z
			 M-186.628,757.627c-0.213,0-0.339,0.189-0.339,0.564c0,0.146,0.019,0.283,0.113,0.393c0.09,0.113,0.233,0.167,0.339,0.167
			c1.232,0.136,2.18,0.505,2.869,1.068c0.693,0.564,1.346,1.562,1.968,2.982l10.013,22.893c0.093,0.213,0.272,0.283,0.562,0.283
			c0.24,0,0.428-0.07,0.563-0.283l6.524-11.925l5.739,11.925c0.136,0.213,0.267,0.283,0.504,0.283c0.307,0,0.499-0.07,0.564-0.283
			l10.18-22.893c0.663-1.511,1.288-2.56,1.913-3.093c0.62-0.54,1.436-0.862,2.418-0.957c0.121,0,0.237-0.041,0.338-0.167
			c0.101-0.136,0.171-0.29,0.171-0.453c0-0.318-0.101-0.504-0.282-0.504c-0.64,0-1.395,0.029-2.197,0.111
			c-0.766,0.085-1.437,0.171-2.024,0.171c-0.554,0-1.201-0.088-2.022-0.171c-0.892-0.076-1.716-0.111-2.366-0.111
			c-0.239,0-0.335,0.186-0.335,0.561c0,0.371,0.063,0.563,0.227,0.563c1.779,0.08,2.701,0.775,2.701,2.08
			c0,0.544-0.134,1.152-0.398,1.801l-7.648,17.775l-5.177-10.517l3.827-7.088c0.939-1.647,1.73-2.74,2.36-3.205
			c0.632-0.467,1.441-0.74,2.476-0.845c0.292,0,0.453-0.192,0.453-0.62c0-0.315-0.071-0.504-0.227-0.504
			c-0.68,0-1.522,0.078-2.534,0.167c-0.791,0.07-1.444,0.115-1.852,0.115c-0.572,0-1.307-0.088-2.194-0.171
			c-0.929-0.076-1.672-0.111-2.307-0.111c-0.078,0-0.202,0.101-0.28,0.224c-0.08,0.119-0.113,0.204-0.113,0.34
			c0,0.368,0.121,0.56,0.282,0.56c1.779,0.085,2.643,0.75,2.643,1.969c0,0.519-0.222,1.156-0.617,1.912l-2.87,5.343l-2.869-5.849
			c-0.413-0.84-0.62-1.461-0.62-1.857c0-0.889,0.864-1.395,2.645-1.518c0.132,0,0.225-0.192,0.225-0.563
			c0-0.375-0.126-0.561-0.338-0.561c-0.889,0-1.786,0.029-2.7,0.111c-0.889,0.085-1.735,0.171-2.53,0.171
			c-0.812,0-1.59-0.088-2.306-0.171c-0.743-0.076-1.53-0.111-2.42-0.111c-0.189,0-0.282,0.186-0.282,0.561
			c0,0.144,0.025,0.285,0.113,0.396c0.087,0.111,0.188,0.167,0.28,0.167c1.025,0.105,1.803,0.432,2.307,0.901
			c0.504,0.472,1.129,1.514,1.911,3.149l4.388,9.112l-4.725,8.887l-8.211-18.676c-0.213-0.476-0.339-0.865-0.339-1.181
			c0-0.63,0.276-1.132,0.789-1.52c0.512-0.385,1.192-0.607,2.08-0.674c0.127,0,0.226-0.192,0.226-0.563
			c0-0.372-0.125-0.561-0.339-0.561c-0.889,0-1.884,0.032-3.038,0.113c-1.102,0.081-2.114,0.169-2.926,0.169
			c-0.794,0-1.628-0.088-2.53-0.169C-184.846,757.662-185.739,757.627-186.628,757.627L-186.628,757.627z"/>
	</g>
</g>
<text transform="matrix(1 0 0 1 -72.9512 41.3555)" font-family="'MyriadPro-Regular'" font-size="21.6">200</text>
<text transform="matrix(1 0 0 1 -75.2017 90.8555)" font-family="'MyriadPro-Regular'" font-size="21.6">150</text>
<defs>
	<filter id="Adobe_OpacityMaskFilter" filterUnits="userSpaceOnUse" x="-233.712" y="-213.607" width="501" height="461.075">
		<feFlood  style="flood-color:white;flood-opacity:1" result="back"/>
		<feBlend  in="SourceGraphic" in2="back" mode="normal"/>
	</filter>
</defs>
<mask maskUnits="userSpaceOnUse" x="-233.712" y="-213.607" width="501" height="461.075" id="SVGID_1_">
	<g filter="url(#Adobe_OpacityMaskFilter)">
		<path stroke="#000000" stroke-miterlimit="10" d="M-43.321-200.995l-0.9,88.2l86.4,293.849c0,0,4.5,18.9-4.949,32.4
			c-9.45,13.5-21.15,18.449-27.9,21.6s-11.7,3.6-23.4,4.949s-142.65,0.451-142.65,0.451s-21.15-1.352-31.05-6.75
			c-9.9-5.4-18.108-9.451-26.55-23.4c-8.442-13.951-3.206-21.363-4.05-27c-0.845-5.637,86.4-296.099,86.4-296.099v-87.75
			L-43.321-200.995z"/>
	</g>
</mask>
<rect x="-233.212" y="-213.107" mask="url(#SVGID_1_)" fill="#FFFFFF" stroke="#000000" stroke-miterlimit="10" width="500" height="460.075"/>
<text transform="matrix(1 0 0 1 -74.7515 140.8057)" font-family="'MyriadPro-Regular'" font-size="21.6">100</text>
<text transform="matrix(1 0 0 1 -72.9512 188.9551)" font-family="'MyriadPro-Regular'" font-size="21.6">50</text>
<line fill="none" stroke="#000000" stroke-width="1.4" x1="-71.618" y1="21.514" x2="-51.835" y2="21.514"/>
<line fill="none" stroke="#000000" stroke-width="1.4" x1="-71.618" y1="-3.015" x2="-21.622" y2="-3.015"/>
<path fill="none" stroke="#000000" stroke-miterlimit="10" d="M-43.321-200.995l-0.9,88.2l86.4,293.849c0,0,4.5,18.9-4.949,32.4
	c-9.45,13.5-21.15,18.449-27.9,21.6s-11.7,3.6-23.4,4.949s-142.65,0.451-142.65,0.451s-21.15-1.352-31.05-6.75
	c-9.9-5.4-18.108-9.451-26.55-23.4c-8.442-13.951-3.206-21.363-4.05-27c-0.845-5.637,86.4-296.099,86.4-296.099v-87.75
	L-43.321-200.995z"/>
<path fill="none" stroke="#000000" stroke-width="3" stroke-miterlimit="10" d="M-85.478-194.479c0,0,10.5-23.5,41-13.5s72,33,72,33
	"/>
<rect x="12.022" y="-176.979" fill="#D3D2E0" stroke="#000000" stroke-miterlimit="10" width="228.5" height="89"/>
<rect x="24.022" y="-164.583" fill="#FFFFFF" stroke="#000000" stroke-miterlimit="10" width="206.868" height="62.708"/>
<text transform="matrix(0.583 0 0 0.583 37.0225 -124.4585)" font-family="'ArialMT'" font-size="60">pH = </text>
<text transform="matrix(0.583 0 0 0.583 125.5225 -124.4585)" font-family="'ArialMT'" font-size="60">3.00</text>
<text transform="matrix(1 0 0 1 -177.2515 135.8555)" font-family="'MyriadPro-Regular'" font-size="25.2">300</text>
<line fill="none" stroke="#000000" x1="65.522" y1="240.521" x2="65.522" y2="216.521"/>
<line fill="none" stroke="#000000" x1="53.522" y1="216.021" x2="74.522" y2="216.021"/>
<line fill="none" stroke="#000000" x1="66.022" y1="213.521" x2="66.022" y2="189.021"/>
<line fill="none" stroke="#000000" x1="53.522" y1="240.521" x2="74.522" y2="240.521"/>
<line fill="none" stroke="#000000" x1="54.022" y1="213.021" x2="75.022" y2="213.021"/>
<line fill="none" stroke="#000000" x1="53.522" y1="189.521" x2="74.522" y2="189.521"/>
<text transform="matrix(1 0 0 1 78.5225 236.0215)" font-family="'ArialMT'" font-size="21.6">Analyte = 25.0 cm</text>
<text transform="matrix(0.583 0 0 0.583 252.0186 228.8291)" font-family="'ArialMT'" font-size="21.6">3</text>
<text transform="matrix(1 0 0 1 88.5225 162.0215)" font-family="'ArialMT'" font-size="21.6">Volume added</text>
<path fill="none" stroke="#000000" stroke-miterlimit="10" d="M-38.478-204.229c0-1.795-1.455-3.25-3.25-3.25h-91.5
	c-1.795,0-3.25,1.455-3.25,3.25l0,0c0,1.795,1.455,3.25,3.25,3.25h91.5C-39.933-200.979-38.478-202.434-38.478-204.229
	L-38.478-204.229z"/>
<text transform="matrix(1 0 0 1 90.5225 188.5215)" font-family="'ArialMT'" font-size="21.6">= XX cm</text>
<text transform="matrix(0.583 0 0 0.583 172.7461 181.3281)" font-family="'ArialMT'" font-size="21.6">3</text>
</svg>
