<?xml version="1.0" encoding="utf-8"?>
<!-- Generator: Adobe Illustrator 16.0.0, SVG Export Plug-In . SVG Version: 6.00 Build 0)  -->
<!DOCTYPE svg PUBLIC "-//W3C//DTD SVG 1.1//EN" "http://www.w3.org/Graphics/SVG/1.1/DTD/svg11.dtd">
<svg version="1.1" id="Layer_1" xmlns:svg="http://www.w3.org/2000/svg"
	 xmlns="http://www.w3.org/2000/svg" xmlns:xlink="http://www.w3.org/1999/xlink" x="0px" y="0px" width="150.045px"
	 height="254.043px" viewBox="17.288 17.43 150.045 254.043" enable-background="new 17.288 17.43 150.045 254.043"
	 xml:space="preserve">
<defs>
	<filter id="Adobe_OpacityMaskFilter" filterUnits="userSpaceOnUse" x="16.788" y="16.93" width="151.045" height="255.043">
		
			<feColorMatrix  type="matrix" values="-1 0 0 0 1  0 -1 0 0 1  0 0 -1 0 1  0 0 0 1 0" color-interpolation-filters="sRGB" result="source"/>
		<feFlood  style="flood-color:white;flood-opacity:1" result="back"/>
		<feBlend  in="source" in2="back" mode="normal"/>
	</filter>
</defs>
<mask maskUnits="userSpaceOnUse" x="16.788" y="16.93" width="151.045" height="255.043" id="SVGID_1_">
	<g filter="url(#Adobe_OpacityMaskFilter)">
		<path fill="#FFFFFF" stroke="#000000" stroke-miterlimit="10" d="M116.978,24.067l-0.5,49l48,163.25c0,0,2.5,10.5-2.75,18
			s-11.75,10.25-15.5,12s-6.5,2-13,2.75s-79.25,0.25-79.25,0.25s-11.75-0.75-17.25-3.75s-10.06-5.25-14.75-13s-1.781-11.869-2.25-15
			s48-164.5,48-164.5v-48.75L116.978,24.067z"/>
	</g>
</mask>
<rect x="17.288" y="17.43" mask="url(#SVGID_1_)" fill="#FFFFFF" stroke="#FFFFFF" stroke-miterlimit="10" width="150.045" height="254.043"/>
<g transform="translate(56.154625,-426.73779)">
	<g transform="matrix(0.69779671,0,0,0.69779671,-72.781959,88.58821)">
		<path fill="none" stroke="#000000" stroke-width="2.3" stroke-linejoin="round" d="M119.46,511.223h73.744
			c1.661,0,2.999,1.336,2.999,2.998c0,1.661-1.338,2.998-2.999,2.998H119.46c-1.661,0-2.998-1.337-2.998-2.998
			C116.463,512.559,117.799,511.223,119.46,511.223z M193.022,517.434v72.071l68,231.057c7.669,35.001-23.622,51.429-51.429,51.429
			h-53.261h-53.261c-27.807,0-59.099-16.427-51.429-51.429l68-231.057v-72.071"/>
		<path fill="#FFFFFF" stroke="#000000" stroke-width="2.3" stroke-linejoin="round" d="M85.914,792.105h53.983v31.363H85.914
			V792.105z"/>
		<path d="M170.84,650.562c-1.173,0-2.063,0.475-2.625,1.375c-0.561,0.901-0.844,2.304-0.844,4.25c0,1.893,0.29,3.297,0.844,4.219
			c0.556,0.922,1.439,1.406,2.625,1.406c1.173,0,2.032-0.47,2.593-1.375c0.563-0.905,0.844-2.314,0.844-4.25
			c0-1.873-0.288-3.287-0.844-4.219C172.879,651.036,172.027,650.562,170.84,650.562z M178.933,650.562
			c-1.173,0-2.031,0.475-2.593,1.375c-0.563,0.901-0.844,2.304-0.844,4.25c0,1.893,0.258,3.297,0.813,4.219
			c0.554,0.922,1.437,1.406,2.624,1.406c1.173,0,2.032-0.47,2.595-1.375c0.561-0.905,0.842-2.314,0.844-4.25
			c-0.001-1.873-0.259-3.287-0.813-4.219C181.003,651.036,180.121,650.562,178.933,650.562z M187.028,650.562
			c-1.173,0-2.032,0.475-2.595,1.375c-0.561,0.901-0.844,2.304-0.844,4.25c0,1.893,0.29,3.297,0.844,4.219
			c0.556,0.922,1.406,1.406,2.595,1.406c1.173,0,2.063-0.47,2.624-1.375c0.563-0.905,0.844-2.314,0.844-4.25
			c0-1.873-0.288-3.287-0.844-4.219C189.098,651.036,188.215,650.562,187.028,650.562z M162.527,650.749
			c-0.043,0.584-0.244,0.978-0.593,1.188c-0.35,0.211-0.887,0.313-1.625,0.313v1h1.937v7.219h-1.937v1.094h5.249v-1.094h-1.906
			v-9.719H162.527z M170.84,651.781c0.406,0,0.715,0.091,0.968,0.281c0.253,0.191,0.449,0.477,0.593,0.844
			c0.146,0.362,0.255,0.798,0.313,1.344c0.057,0.546,0.094,1.199,0.094,1.938c0,0.744-0.036,1.392-0.094,1.938
			c-0.059,0.546-0.141,0.987-0.281,1.344c-0.146,0.376-0.367,0.654-0.626,0.844c-0.258,0.191-0.568,0.281-0.968,0.281
			c-0.416,0-0.773-0.081-1.031-0.281c-0.258-0.2-0.453-0.503-0.593-0.875c-0.155-0.401-0.235-0.837-0.281-1.344
			c-0.046-0.507-0.094-1.152-0.094-1.906c0-0.705,0.041-1.346,0.094-1.906c0.053-0.56,0.136-1.008,0.281-1.375
			c0.15-0.376,0.367-0.653,0.624-0.844C170.098,651.871,170.44,651.781,170.84,651.781z M178.933,651.781
			c0.406,0,0.747,0.091,1.001,0.281c0.253,0.191,0.449,0.477,0.593,0.844c0.146,0.362,0.224,0.798,0.281,1.344
			c0.057,0.546,0.094,1.199,0.094,1.938c0,0.744-0.036,1.392-0.094,1.938c-0.057,0.546-0.141,0.987-0.281,1.344
			c-0.144,0.376-0.336,0.654-0.593,0.844c-0.259,0.191-0.6,0.281-1.001,0.281c-0.414,0-0.742-0.081-0.999-0.281
			c-0.259-0.2-0.455-0.503-0.595-0.875c-0.154-0.401-0.266-0.837-0.312-1.344c-0.046-0.507-0.063-1.152-0.063-1.906
			c0-0.705,0.01-1.346,0.063-1.906c0.053-0.56,0.168-1.008,0.312-1.375c0.15-0.376,0.336-0.653,0.595-0.844
			C178.191,651.871,178.533,651.781,178.933,651.781z M187.028,651.781c0.404,0,0.746,0.091,0.999,0.281
			c0.253,0.191,0.449,0.477,0.593,0.844c0.146,0.362,0.255,0.798,0.313,1.344c0.057,0.546,0.094,1.199,0.094,1.938
			c0,0.744-0.036,1.392-0.094,1.938c-0.059,0.546-0.174,0.987-0.313,1.344c-0.144,0.376-0.334,0.654-0.593,0.844
			c-0.258,0.191-0.599,0.281-0.999,0.281c-0.416,0-0.742-0.081-1.001-0.281c-0.258-0.2-0.453-0.503-0.593-0.875
			c-0.155-0.401-0.267-0.837-0.312-1.344c-0.046-0.507-0.063-1.152-0.063-1.906c0-0.705,0.041-1.346,0.094-1.906
			c0.053-0.56,0.136-1.008,0.281-1.375c0.15-0.376,0.367-0.653,0.624-0.844C186.317,651.871,186.626,651.781,187.028,651.781
			L187.028,651.781z M163.809,718.156c-0.942,0-1.7,0.272-2.313,0.812s-0.936,1.22-0.936,2.031c0,0.55,0.15,1.008,0.406,1.375
			c0.256,0.367,0.626,0.691,1.156,1v0.062c-0.593,0.29-1.033,0.666-1.344,1.157c-0.312,0.489-0.469,1.04-0.469,1.625
			c0,0.444,0.062,0.851,0.218,1.248c0.157,0.399,0.416,0.742,0.719,1.033c0.308,0.3,0.686,0.528,1.125,0.686
			c0.438,0.16,0.901,0.252,1.437,0.252c1.003,0,1.863-0.316,2.53-0.938c0.669-0.624,1.001-1.391,1.001-2.313
			c0-0.662-0.176-1.205-0.5-1.625c-0.323-0.42-0.81-0.799-1.437-1.094v-0.031c0.53-0.265,0.967-0.621,1.25-1.094
			c0.281-0.473,0.406-0.954,0.406-1.437c0-0.801-0.284-1.455-0.875-1.969C165.592,718.423,164.788,718.156,163.809,718.156
			L163.809,718.156z M171.933,718.187c-1.173,0-2.061,0.444-2.624,1.344c-0.563,0.901-0.844,2.335-0.844,4.281
			c0,1.892,0.288,3.297,0.844,4.218c0.554,0.924,1.437,1.376,2.624,1.376c1.173,0,2.032-0.438,2.595-1.344
			c0.563-0.906,0.844-2.346,0.844-4.282c0-1.873-0.29-3.287-0.844-4.219C173.972,718.63,173.121,718.187,171.933,718.187z
			 M180.028,718.187c-1.173,0-2.032,0.444-2.595,1.344c-0.561,0.901-0.842,2.335-0.842,4.281c0,1.892,0.288,3.297,0.842,4.218
			c0.556,0.924,1.406,1.376,2.595,1.376c1.173,0,2.031-0.438,2.593-1.344c0.563-0.906,0.844-2.346,0.844-4.282
			c0-1.873-0.258-3.287-0.813-4.219C182.097,718.63,181.214,718.187,180.028,718.187z M163.809,719.218
			c0.574,0,1.02,0.146,1.344,0.469s0.5,0.736,0.5,1.219c0,0.439-0.101,0.847-0.249,1.187c-0.15,0.34-0.424,0.645-0.844,0.968
			c-0.252-0.082-0.537-0.167-0.844-0.312c-0.307-0.145-0.507-0.262-0.656-0.344c-0.343-0.198-0.61-0.441-0.781-0.687
			c-0.172-0.246-0.251-0.549-0.251-0.906c0-0.493,0.165-0.867,0.5-1.157C162.863,719.366,163.283,719.218,163.809,719.218z
			 M171.933,719.374c0.406,0,0.717,0.091,0.97,0.281c0.253,0.191,0.448,0.477,0.593,0.844c0.144,0.362,0.255,0.798,0.312,1.344
			c0.059,0.545,0.094,1.199,0.094,1.937c0,0.744-0.035,1.392-0.094,1.938c-0.057,0.546-0.141,0.987-0.281,1.344
			c-0.144,0.378-0.367,0.684-0.624,0.876c-0.259,0.19-0.568,0.28-0.97,0.28c-0.414,0-0.773-0.112-1.03-0.312
			c-0.259-0.2-0.455-0.472-0.595-0.844c-0.154-0.4-0.235-0.868-0.281-1.374c-0.045-0.507-0.062-1.122-0.062-1.875
			c0-0.705,0.008-1.346,0.062-1.906c0.053-0.561,0.168-1.039,0.313-1.406c0.15-0.376,0.334-0.653,0.593-0.844
			C171.191,719.465,171.533,719.374,171.933,719.374z M180.028,719.374c0.404,0,0.746,0.091,0.999,0.281
			c0.253,0.191,0.449,0.477,0.595,0.844c0.144,0.362,0.255,0.798,0.312,1.344c0.057,0.545,0.063,1.199,0.063,1.937
			c0,0.744-0.006,1.392-0.063,1.938c-0.057,0.546-0.172,0.987-0.312,1.344c-0.146,0.378-0.336,0.684-0.595,0.876
			c-0.257,0.19-0.599,0.28-0.999,0.28c-0.416,0-0.742-0.112-1.001-0.312c-0.258-0.2-0.453-0.472-0.593-0.844
			c-0.154-0.4-0.267-0.868-0.312-1.374c-0.046-0.507-0.063-1.122-0.063-1.875c0-0.705,0.041-1.346,0.094-1.906
			c0.053-0.561,0.137-1.039,0.281-1.406c0.15-0.376,0.367-0.653,0.626-0.844C179.317,719.465,179.627,719.374,180.028,719.374
			L180.028,719.374z M162.996,723.781c0.343,0.145,0.665,0.269,0.938,0.375c0.273,0.106,0.493,0.221,0.656,0.313
			c0.497,0.27,0.826,0.521,1.001,0.781c0.174,0.262,0.249,0.619,0.249,1.062c0,0.628-0.164,1.136-0.53,1.5
			c-0.367,0.364-0.861,0.532-1.469,0.532c-0.593,0-1.107-0.2-1.5-0.626c-0.393-0.424-0.563-0.973-0.563-1.625
			c0-0.498,0.101-0.924,0.313-1.313C162.302,724.392,162.595,724.047,162.996,723.781z M139.558,775.062v11.283h1.376v-11.283
			H139.558z M101.183,775.344c-1.171,0-2.031,0.442-2.593,1.344c-0.563,0.9-0.844,2.334-0.844,4.28c0,1.894,0.258,3.297,0.813,4.219
			c0.554,0.922,1.437,1.376,2.624,1.376c1.173,0,2.032-0.439,2.595-1.344c0.563-0.907,0.844-2.346,0.844-4.282
			c0-1.873-0.258-3.255-0.813-4.187C103.254,775.817,102.371,775.344,101.183,775.344z M109.308,775.344
			c-1.173,0-2.063,0.442-2.625,1.344c-0.561,0.9-0.842,2.334-0.842,4.28c0,1.894,0.288,3.297,0.842,4.219
			c0.556,0.922,1.439,1.376,2.625,1.376c1.173,0,2.032-0.439,2.593-1.344c0.563-0.907,0.844-2.346,0.844-4.282
			c0-1.873-0.288-3.255-0.844-4.187C111.347,775.817,110.495,775.344,109.308,775.344z M117.402,775.344
			c-1.171,0-2.031,0.442-2.593,1.344c-0.563,0.9-0.844,2.334-0.844,4.28c0,1.894,0.258,3.297,0.813,4.219
			c0.554,0.922,1.437,1.376,2.624,1.376c1.173,0,2.032-0.439,2.595-1.344c0.563-0.907,0.844-2.346,0.844-4.282
			c0-1.873-0.258-3.255-0.813-4.187C119.473,775.817,118.59,775.344,117.402,775.344z M92.902,775.532
			c-0.043,0.584-0.244,0.977-0.593,1.187s-0.887,0.312-1.625,0.312v1.001h1.937v7.219h-1.937v1.094h5.25v-1.094h-1.906v-9.718
			H92.902z M165.152,775.907c-0.81,0-1.538,0.161-2.157,0.467c-0.617,0.308-1.108,0.736-1.5,1.282
			c-0.4,0.56-0.712,1.212-0.905,1.968s-0.281,1.595-0.281,2.532c0,0.956,0.102,1.752,0.312,2.406
			c0.21,0.655,0.504,1.173,0.875,1.563c0.305,0.323,0.665,0.586,1.064,0.75c0.397,0.164,0.824,0.25,1.311,0.25
			c0.483,0,0.943-0.078,1.345-0.25c0.4-0.172,0.739-0.449,1.062-0.782c0.309-0.313,0.567-0.687,0.75-1.156
			c0.183-0.467,0.281-0.975,0.281-1.531c0-0.617-0.12-1.166-0.313-1.623c-0.193-0.459-0.479-0.826-0.875-1.125
			c-0.343-0.258-0.652-0.448-0.968-0.532c-0.316-0.084-0.705-0.126-1.125-0.126c-0.43,0-0.826,0.059-1.187,0.188
			c-0.362,0.132-0.721,0.322-1.064,0.563c0.102-1.192,0.448-2.081,1.001-2.687c0.553-0.606,1.258-0.907,2.157-0.907
			c0.28,0,0.565,0.034,0.812,0.095c0.246,0.059,0.432,0.115,0.563,0.188h0.063v-1.376c-0.16-0.053-0.355-0.101-0.563-0.125
			C165.602,775.912,165.393,775.907,165.152,775.907z M171.839,775.907c-1.173,0-2.031,0.442-2.593,1.344
			c-0.563,0.9-0.844,2.304-0.844,4.249c0,1.892,0.29,3.297,0.844,4.218c0.556,0.924,1.406,1.408,2.593,1.408
			c1.173,0,2.032-0.47,2.595-1.376c0.563-0.906,0.844-2.313,0.844-4.25c0-1.872-0.258-3.286-0.813-4.218
			C173.91,776.349,173.027,775.907,171.839,775.907z M179.965,775.907c-1.173,0-2.063,0.442-2.625,1.344
			c-0.561,0.9-0.842,2.304-0.842,4.249c0,1.892,0.288,3.297,0.842,4.218c0.556,0.924,1.439,1.408,2.625,1.408
			c1.173,0,2.032-0.47,2.593-1.376c0.563-0.906,0.844-2.313,0.844-4.25c0-1.872-0.288-3.286-0.844-4.218
			C182.004,776.349,181.151,775.907,179.965,775.907z M101.183,776.531c0.406,0,0.747,0.09,1.001,0.281
			c0.253,0.19,0.449,0.477,0.593,0.844c0.146,0.361,0.255,0.828,0.313,1.374c0.057,0.546,0.062,1.167,0.062,1.906
			c0,0.745-0.004,1.392-0.062,1.937c-0.059,0.546-0.174,1.019-0.313,1.377c-0.144,0.375-0.334,0.652-0.593,0.843
			c-0.258,0.19-0.599,0.281-1.001,0.281c-0.414,0-0.742-0.112-0.999-0.312c-0.259-0.201-0.453-0.473-0.593-0.844
			c-0.155-0.402-0.267-0.869-0.313-1.376c-0.045-0.507-0.062-1.121-0.062-1.875c0-0.704,0.008-1.346,0.062-1.906
			c0.053-0.56,0.168-1.008,0.313-1.374c0.15-0.376,0.334-0.684,0.593-0.875C100.441,776.621,100.783,776.531,101.183,776.531z
			 M109.308,776.531c0.406,0,0.715,0.09,0.968,0.281c0.253,0.19,0.449,0.477,0.595,0.844c0.144,0.361,0.255,0.828,0.312,1.374
			s0.094,1.167,0.094,1.906c0,0.745-0.036,1.392-0.094,1.937c-0.057,0.546-0.141,1.019-0.281,1.377
			c-0.144,0.375-0.367,0.652-0.626,0.843c-0.258,0.19-0.568,0.281-0.968,0.281c-0.414,0-0.773-0.112-1.031-0.312
			c-0.258-0.201-0.453-0.473-0.593-0.844c-0.154-0.402-0.235-0.869-0.281-1.376c-0.046-0.507-0.094-1.121-0.094-1.875
			c0-0.704,0.041-1.346,0.094-1.906c0.053-0.56,0.137-1.008,0.281-1.374c0.15-0.376,0.367-0.684,0.626-0.875
			C108.567,776.621,108.908,776.531,109.308,776.531z M117.402,776.531c0.406,0,0.747,0.09,1.001,0.281
			c0.253,0.19,0.449,0.477,0.593,0.844c0.146,0.361,0.224,0.828,0.281,1.374c0.059,0.546,0.094,1.167,0.094,1.906
			c0,0.745-0.035,1.392-0.094,1.937c-0.057,0.546-0.141,1.019-0.281,1.377c-0.144,0.375-0.334,0.652-0.593,0.843
			c-0.257,0.19-0.599,0.281-1.001,0.281c-0.414,0-0.742-0.112-0.999-0.312c-0.259-0.201-0.453-0.473-0.593-0.844
			c-0.155-0.402-0.267-0.869-0.313-1.376c-0.045-0.507-0.062-1.121-0.062-1.875c0-0.704,0.008-1.346,0.062-1.906
			c0.053-0.56,0.168-1.008,0.313-1.374c0.15-0.376,0.334-0.684,0.593-0.875C116.66,776.621,117.001,776.531,117.402,776.531z
			 M171.839,777.094c0.406,0,0.747,0.09,1.001,0.28c0.253,0.192,0.449,0.479,0.593,0.845c0.146,0.361,0.255,0.798,0.313,1.344
			c0.057,0.546,0.062,1.198,0.062,1.937c0,0.745-0.004,1.393-0.062,1.937c-0.059,0.546-0.174,0.988-0.313,1.345
			c-0.144,0.376-0.336,0.654-0.593,0.844c-0.258,0.19-0.599,0.28-1.001,0.28c-0.414,0-0.742-0.08-0.999-0.28
			c-0.259-0.202-0.453-0.504-0.593-0.876c-0.155-0.4-0.267-0.837-0.313-1.344c-0.045-0.507-0.062-1.153-0.062-1.906
			c0-0.705,0.041-1.315,0.094-1.875c0.053-0.56,0.136-1.038,0.281-1.405c0.15-0.378,0.367-0.654,0.624-0.845
			C171.13,777.183,171.439,777.094,171.839,777.094L171.839,777.094z M179.965,777.094c0.406,0,0.715,0.09,0.968,0.28
			c0.253,0.192,0.449,0.479,0.595,0.845c0.144,0.361,0.255,0.798,0.312,1.344c0.057,0.546,0.094,1.198,0.094,1.937
			c0,0.745-0.036,1.393-0.094,1.937c-0.057,0.546-0.141,0.988-0.281,1.345c-0.146,0.376-0.367,0.654-0.626,0.844
			c-0.258,0.19-0.568,0.28-0.968,0.28c-0.414,0-0.773-0.08-1.031-0.28c-0.258-0.202-0.453-0.504-0.593-0.876
			c-0.154-0.4-0.235-0.837-0.281-1.344c-0.046-0.507-0.094-1.153-0.094-1.906c0-0.705,0.041-1.315,0.094-1.875
			c0.053-0.56,0.137-1.038,0.281-1.405c0.15-0.378,0.367-0.654,0.626-0.845C179.223,777.183,179.564,777.094,179.965,777.094z
			 M130.652,778.031c-0.42,0-0.806,0.085-1.156,0.28c-0.35,0.196-0.705,0.487-1.062,0.845v-0.907h-1.344v8.095h1.344v-6.032
			c0.304-0.285,0.614-0.535,0.938-0.719c0.323-0.183,0.642-0.249,0.938-0.249c0.304,0,0.54,0.034,0.718,0.125
			c0.179,0.091,0.309,0.245,0.406,0.438c0.092,0.178,0.16,0.402,0.188,0.718c0.029,0.316,0.063,0.659,0.063,1.031v4.688h1.344
			v-5.312c0-0.155,0.007-0.294,0-0.407c-0.007-0.113-0.027-0.231-0.031-0.312c0.343-0.325,0.679-0.549,0.999-0.719
			c0.322-0.171,0.627-0.249,0.907-0.249c0.304,0,0.54,0.034,0.719,0.125c0.178,0.091,0.309,0.245,0.406,0.438
			c0.091,0.178,0.158,0.402,0.188,0.718s0.031,0.659,0.031,1.031v4.688h1.376v-5.312c0-0.557-0.07-1.041-0.188-1.408
			c-0.119-0.367-0.283-0.659-0.501-0.905c-0.211-0.242-0.465-0.423-0.749-0.53c-0.285-0.109-0.591-0.157-0.938-0.157
			c-0.459,0-0.891,0.106-1.282,0.344c-0.39,0.235-0.777,0.602-1.187,1.061c-0.193-0.497-0.476-0.876-0.844-1.093
			C131.564,778.126,131.131,778.031,130.652,778.031z M163.715,781.187c0.251,0,0.511,0.014,0.75,0.063
			c0.238,0.048,0.437,0.157,0.624,0.312c0.262,0.213,0.446,0.483,0.563,0.781c0.116,0.299,0.188,0.651,0.188,1.093
			c0,0.826-0.203,1.461-0.563,1.875c-0.36,0.416-0.827,0.626-1.406,0.626c-0.255,0-0.467-0.032-0.687-0.125
			c-0.22-0.092-0.448-0.274-0.656-0.501c-0.217-0.235-0.383-0.571-0.53-1.03c-0.147-0.459-0.22-1.064-0.22-1.814
			c0-0.148-0.004-0.274,0-0.375c0.006-0.098-0.01-0.206,0-0.311c0.309-0.193,0.651-0.337,0.97-0.439
			C163.064,781.242,163.376,781.187,163.715,781.187z M172.183,821.406c-1.173,0-2.063,0.444-2.625,1.345
			c-0.561,0.898-0.842,2.304-0.842,4.249c0,1.892,0.288,3.328,0.842,4.25c0.556,0.922,1.439,1.376,2.625,1.376
			c1.173,0,2.032-0.47,2.593-1.376c0.563-0.905,0.844-2.313,0.844-4.25c0-1.872-0.288-3.286-0.844-4.218
			C174.222,821.849,173.37,821.406,172.183,821.406z M180.277,821.406c-1.173,0-2.031,0.444-2.593,1.345
			c-0.563,0.898-0.844,2.304-0.844,4.249c0,1.892,0.258,3.328,0.813,4.25c0.554,0.922,1.437,1.376,2.624,1.376
			c1.173,0,2.032-0.47,2.595-1.376c0.563-0.905,0.844-2.313,0.844-4.25c0-1.872-0.258-3.286-0.813-4.218
			C182.348,821.849,181.465,821.406,180.277,821.406z M165.122,821.625l-4.813,5.531v1.531h4.75v3.718h1.406v-3.718h1.281v-1.156
			h-1.281v-5.906H165.122z M172.183,822.594c0.406,0,0.715,0.09,0.968,0.28c0.253,0.192,0.449,0.479,0.595,0.845
			c0.144,0.361,0.253,0.798,0.312,1.344c0.057,0.546,0.094,1.198,0.094,1.937c0,0.745-0.036,1.391-0.094,1.937
			c-0.059,0.546-0.141,0.988-0.281,1.344c-0.146,0.378-0.367,0.655-0.626,0.845c-0.258,0.19-0.568,0.312-0.968,0.312
			c-0.414,0-0.773-0.113-1.031-0.312c-0.258-0.201-0.453-0.504-0.593-0.876c-0.154-0.4-0.235-0.837-0.281-1.344
			c-0.046-0.507-0.094-1.153-0.094-1.906c0-0.705,0.041-1.316,0.094-1.875c0.053-0.56,0.136-1.038,0.281-1.405
			c0.15-0.378,0.367-0.654,0.626-0.845C171.442,822.684,171.783,822.594,172.183,822.594z M180.277,822.594
			c0.406,0,0.747,0.09,1.001,0.28c0.253,0.192,0.449,0.479,0.593,0.845c0.146,0.361,0.255,0.798,0.313,1.344
			c0.057,0.546,0.062,1.198,0.062,1.937c0,0.745-0.004,1.391-0.062,1.937c-0.059,0.546-0.174,0.988-0.313,1.344
			c-0.144,0.378-0.336,0.655-0.593,0.845c-0.259,0.19-0.599,0.312-1.001,0.312c-0.414,0-0.742-0.113-0.999-0.312
			c-0.259-0.201-0.453-0.504-0.593-0.876c-0.155-0.4-0.267-0.837-0.313-1.344c-0.045-0.507-0.062-1.153-0.062-1.906
			c0-0.705,0.008-1.316,0.062-1.875c0.053-0.56,0.168-1.038,0.313-1.405c0.15-0.378,0.334-0.654,0.593-0.845
			C179.535,822.684,179.876,822.594,180.277,822.594z M165.059,823.312v4.219h-3.625L165.059,823.312z M116.246,829.813
			c-0.118,0-0.188,0.104-0.188,0.312c0,0.081,0.01,0.158,0.063,0.22c0.05,0.062,0.129,0.092,0.188,0.092
			c0.684,0.076,1.211,0.281,1.594,0.593c0.385,0.313,0.747,0.868,1.093,1.657l5.563,12.719c0.052,0.118,0.151,0.157,0.312,0.157
			c0.134,0,0.238-0.039,0.313-0.157l3.625-6.625l3.187,6.625c0.076,0.118,0.148,0.157,0.281,0.157c0.171,0,0.276-0.039,0.313-0.157
			l5.655-12.719c0.369-0.84,0.715-1.422,1.062-1.719c0.346-0.299,0.799-0.479,1.345-0.532c0.067,0,0.13-0.022,0.188-0.092
			c0.055-0.076,0.094-0.161,0.094-0.252c0-0.176-0.055-0.28-0.157-0.28c-0.354,0-0.775,0.018-1.219,0.062
			c-0.427,0.048-0.799,0.095-1.125,0.095c-0.308,0-0.668-0.049-1.125-0.095c-0.494-0.043-0.952-0.062-1.313-0.062
			c-0.133,0-0.186,0.104-0.186,0.312c0,0.206,0.035,0.312,0.125,0.312c0.988,0.046,1.5,0.432,1.5,1.156
			c0,0.302-0.073,0.64-0.22,1.001l-4.249,9.875l-2.876-5.843l2.126-3.938c0.522-0.915,0.961-1.523,1.311-1.78
			c0.351-0.26,0.801-0.411,1.376-0.47c0.162,0,0.251-0.106,0.251-0.344c0-0.176-0.038-0.28-0.126-0.28
			c-0.376,0-0.845,0.043-1.406,0.092c-0.441,0.038-0.803,0.064-1.03,0.064c-0.318,0-0.725-0.049-1.219-0.095
			c-0.516-0.043-0.928-0.062-1.282-0.062c-0.043,0-0.111,0.056-0.155,0.125c-0.045,0.066-0.063,0.113-0.063,0.188
			c0,0.206,0.067,0.312,0.157,0.312c0.988,0.046,1.468,0.416,1.468,1.094c0,0.288-0.123,0.642-0.344,1.062l-1.593,2.968l-1.594-3.25
			c-0.23-0.465-0.344-0.81-0.344-1.031c0-0.494,0.48-0.775,1.469-0.844c0.074,0,0.125-0.106,0.125-0.312
			c0-0.208-0.07-0.312-0.188-0.312c-0.494,0-0.991,0.018-1.5,0.062c-0.494,0.048-0.964,0.095-1.406,0.095
			c-0.451,0-0.883-0.049-1.281-0.095c-0.413-0.043-0.85-0.062-1.344-0.062c-0.105,0-0.157,0.104-0.157,0.312
			c0,0.081,0.014,0.158,0.063,0.22c0.048,0.062,0.104,0.092,0.155,0.092c0.57,0.059,1.002,0.241,1.282,0.501
			c0.28,0.262,0.627,0.842,1.062,1.749l2.438,5.063l-2.625,4.937l-4.562-10.376c-0.118-0.264-0.188-0.479-0.188-0.656
			c0-0.349,0.153-0.628,0.438-0.844c0.284-0.213,0.662-0.337,1.156-0.375c0.071,0,0.125-0.106,0.125-0.312
			c0-0.208-0.069-0.312-0.188-0.312c-0.494,0-1.047,0.018-1.688,0.062c-0.612,0.046-1.174,0.095-1.625,0.095
			c-0.441,0-0.905-0.049-1.406-0.095C117.236,829.831,116.74,829.813,116.246,829.813L116.246,829.813z"/>
		<path fill="none" stroke="#000000" stroke-width="1.4" d="M158.671,692.748h15.75 M158.671,757.126h15.75 M158.671,809.691h15.75
			 M158.671,835.441h39.806 M158.671,789.938h39.806 M158.671,732.25h39.806 M158.671,664.622h39.806"/>
	</g>
</g>
</svg>
